<svg width="60" height="60" viewBox="0 0 60 60" fill="none" xmlns="http://www.w3.org/2000/svg">
<path d="M26.25 11.25H33.75C33.75 10.2554 33.3549 9.30161 32.6516 8.59835C31.9484 7.89509 30.9946 7.5 30 7.5C29.0054 7.5 28.0516 7.89509 27.3484 8.59835C26.6451 9.30161 26.25 10.2554 26.25 11.25ZM22.5 11.25C22.5 9.26088 23.2902 7.35322 24.6967 5.9467C26.1032 4.54018 28.0109 3.75 30 3.75C31.9891 3.75 33.8968 4.54018 35.3033 5.9467C36.7098 7.35322 37.5 9.26088 37.5 11.25H52.5C52.9973 11.25 53.4742 11.4475 53.8258 11.7992C54.1775 12.1508 54.375 12.6277 54.375 13.125C54.375 13.6223 54.1775 14.0992 53.8258 14.4508C53.4742 14.8025 52.9973 15 52.5 15H50.385L45.8662 48.1425C45.5598 50.3885 44.4499 52.4474 42.7421 53.938C41.0343 55.4286 38.8443 56.25 36.5775 56.25H23.4225C21.1557 56.25 18.9657 55.4286 17.2579 53.938C15.5501 52.4474 14.4402 50.3885 14.1337 48.1425L9.615 15H7.5C7.00272 15 6.52581 14.8025 6.17417 14.4508C5.82254 14.0992 5.625 13.6223 5.625 13.125C5.625 12.6277 5.82254 12.1508 6.17417 11.7992C6.52581 11.4475 7.00272 11.25 7.5 11.25H22.5ZM26.25 24.375C26.25 23.8777 26.0525 23.4008 25.7008 23.0492C25.3492 22.6975 24.8723 22.5 24.375 22.5C23.8777 22.5 23.4008 22.6975 23.0492 23.0492C22.6975 23.4008 22.5 23.8777 22.5 24.375V43.125C22.5 43.6223 22.6975 44.0992 23.0492 44.4508C23.4008 44.8025 23.8777 45 24.375 45C24.8723 45 25.3492 44.8025 25.7008 44.4508C26.0525 44.0992 26.25 43.6223 26.25 43.125V24.375ZM35.625 22.5C35.1277 22.5 34.6508 22.6975 34.2992 23.0492C33.9475 23.4008 33.75 23.8777 33.75 24.375V43.125C33.75 43.6223 33.9475 44.0992 34.2992 44.4508C34.6508 44.8025 35.1277 45 35.625 45C36.1223 45 36.5992 44.8025 36.9508 44.4508C37.3025 44.0992 37.5 43.6223 37.5 43.125V24.375C37.5 23.8777 37.3025 23.4008 36.9508 23.0492C36.5992 22.6975 36.1223 22.5 35.625 22.5Z" fill="#E72929"/>
</svg>
