<svg width="25" height="24" viewBox="0 0 25 24" fill="none" xmlns="http://www.w3.org/2000/svg">
<path d="M21.6744 9.63937C21.3209 9.27 20.9553 8.88938 20.8175 8.55469C20.69 8.24813 20.6825 7.74 20.675 7.24781C20.6609 6.33281 20.6459 5.29594 19.925 4.575C19.2041 3.85406 18.1672 3.83906 17.2522 3.825C16.76 3.8175 16.2519 3.81 15.9453 3.6825C15.6116 3.54469 15.23 3.17906 14.8606 2.82562C14.2137 2.20406 13.4788 1.5 12.5 1.5C11.5212 1.5 10.7872 2.20406 10.1394 2.82562C9.77 3.17906 9.38938 3.54469 9.05469 3.6825C8.75 3.81 8.24 3.8175 7.74781 3.825C6.83281 3.83906 5.79594 3.85406 5.075 4.575C4.35406 5.29594 4.34375 6.33281 4.325 7.24781C4.3175 7.74 4.31 8.24813 4.1825 8.55469C4.04469 8.88844 3.67906 9.27 3.32562 9.63937C2.70406 10.2863 2 11.0212 2 12C2 12.9788 2.70406 13.7128 3.32562 14.3606C3.67906 14.73 4.04469 15.1106 4.1825 15.4453C4.31 15.7519 4.3175 16.26 4.325 16.7522C4.33906 17.6672 4.35406 18.7041 5.075 19.425C5.79594 20.1459 6.83281 20.1609 7.74781 20.175C8.24 20.1825 8.74813 20.19 9.05469 20.3175C9.38844 20.4553 9.77 20.8209 10.1394 21.1744C10.7863 21.7959 11.5212 22.5 12.5 22.5C13.4788 22.5 14.2128 21.7959 14.8606 21.1744C15.23 20.8209 15.6106 20.4553 15.9453 20.3175C16.2519 20.19 16.76 20.1825 17.2522 20.175C18.1672 20.1609 19.2041 20.1459 19.925 19.425C20.6459 18.7041 20.6609 17.6672 20.675 16.7522C20.6825 16.26 20.69 15.7519 20.8175 15.4453C20.9553 15.1116 21.3209 14.73 21.6744 14.3606C22.2959 13.7137 23 12.9788 23 12C23 11.0212 22.2959 10.2872 21.6744 9.63937ZM16.7806 10.2806L11.5306 15.5306C11.461 15.6004 11.3783 15.6557 11.2872 15.6934C11.1962 15.7312 11.0986 15.7506 11 15.7506C10.9014 15.7506 10.8038 15.7312 10.7128 15.6934C10.6217 15.6557 10.539 15.6004 10.4694 15.5306L8.21937 13.2806C8.07864 13.1399 7.99958 12.949 7.99958 12.75C7.99958 12.551 8.07864 12.3601 8.21937 12.2194C8.36011 12.0786 8.55098 11.9996 8.75 11.9996C8.94902 11.9996 9.13989 12.0786 9.28063 12.2194L11 13.9397L15.7194 9.21937C15.7891 9.14969 15.8718 9.09442 15.9628 9.0567C16.0539 9.01899 16.1515 8.99958 16.25 8.99958C16.3485 8.99958 16.4461 9.01899 16.5372 9.0567C16.6282 9.09442 16.7109 9.14969 16.7806 9.21937C16.8503 9.28906 16.9056 9.37178 16.9433 9.46283C16.981 9.55387 17.0004 9.65145 17.0004 9.75C17.0004 9.84855 16.981 9.94613 16.9433 10.0372C16.9056 10.1282 16.8503 10.2109 16.7806 10.2806Z" fill="black"/>
</svg>
